<svg xmlns="http://www.w3.org/2000/svg" width="50.332" height="50.224" viewBox="0 0 50.332 50.224"><defs><style>.a{fill:#b89b4b;}</style></defs><g transform="translate(0)"><g transform="translate(0 0)"><rect class="a" width="5.044" height="1.681" transform="translate(36.148 33.518)"/><rect class="a" width="5.044" height="1.681" transform="translate(29.423 33.518)"/><rect class="a" width="5.044" height="1.681" transform="translate(22.697 33.518)"/><path class="a" d="M49.587,17.9,32.953,1.26A2.511,2.511,0,0,0,31.166.516h-.008a2.487,2.487,0,0,0-1.773.744L11.74,18.9H2.522A2.522,2.522,0,0,0,0,21.425V44.963a2.522,2.522,0,0,0,2.522,2.522H14.977L17.485,50a2.511,2.511,0,0,0,1.787.744h.007A2.488,2.488,0,0,0,21.053,50l2.514-2.511H42.873a2.522,2.522,0,0,0,2.522-2.522V25.656l4.188-4.188a2.509,2.509,0,0,0,0-3.572ZM38.893,9.58,29.571,18.9H22.432L35.324,6.01ZM30.576,2.445a.829.829,0,0,1,1.172-.014l.014.014,2.373,2.377L20.054,18.9H14.118ZM19.863,48.81a.818.818,0,0,1-.588.252.841.841,0,0,1-.6-.252l-1.321-1.326h3.834Zm23.851-3.848a.841.841,0,0,1-.841.841H2.522a.841.841,0,0,1-.841-.841V33.194H43.714Zm0-13.45H1.681V26.468H43.714Zm0-6.725H1.681V21.425a.841.841,0,0,1,.841-.841H42.873a.841.841,0,0,1,.841.841ZM48.4,20.275h0l-3,3V21.425A2.522,2.522,0,0,0,42.873,18.9H31.945l8.134-8.134L48.4,19.085a.84.84,0,0,1,.252.6A.824.824,0,0,1,48.4,20.275Z" transform="translate(0 -0.516)"/><path class="a" d="M29.358,365.4a3.359,3.359,0,0,0,.344-.344,3.333,3.333,0,0,0,4.425.57,3.418,3.418,0,0,0,1.459-2.771,3.363,3.363,0,0,0-3.363-3.363,2.546,2.546,0,0,0-.5.042l-.022.006h-.024a3.319,3.319,0,0,0-1.978,1.116,3.363,3.363,0,1,0-.344,4.743Zm2.653-4.208a1.016,1.016,0,0,1,.213-.018,1.681,1.681,0,0,1,1.681,1.681,1.649,1.649,0,0,1-.33.986c-.03.041-.054.084-.088.127-.006.007-.014.011-.021.018a1.671,1.671,0,1,1-1.454-2.794Zm-4.831-.018a1.681,1.681,0,1,1-1.681,1.681A1.681,1.681,0,0,1,27.179,361.171Z" transform="translate(-21.295 -321.768)"/></g></g></svg>