<svg xmlns="http://www.w3.org/2000/svg" width="38.86" height="38.86" viewBox="0 0 38.86 38.86"><defs><style>.a{fill:#b89b4b;}</style></defs><path class="a" d="M224.113,215.319l6.32-3.64-6.32-3.64Zm0,0" transform="translate(-207.104 -192.249)"/><path class="a" d="M19.43,0A19.43,19.43,0,1,0,38.86,19.43,19.432,19.432,0,0,0,19.43,0ZM31.571,19.45a32.068,32.068,0,0,1-.5,5.841,3.042,3.042,0,0,1-2.14,2.14c-1.9.5-9.5.5-9.5.5s-7.581,0-9.5-.52a3.043,3.043,0,0,1-2.14-2.14,31.928,31.928,0,0,1-.5-5.84,32.047,32.047,0,0,1,.5-5.84,3.1,3.1,0,0,1,2.14-2.16c1.9-.5,9.5-.5,9.5-.5s7.6,0,9.5.52a3.043,3.043,0,0,1,2.14,2.14A30.432,30.432,0,0,1,31.571,19.45Zm0,0"/></svg>