<svg xmlns="http://www.w3.org/2000/svg" width="48.416" height="53.801" viewBox="0 0 48.416 53.801"><defs><style>.a{fill:#b89b4b;}</style></defs><g transform="translate(0)"><path class="a" d="M64.022,26.423h3.753a1.54,1.54,0,0,0,1.539-1.539V21.131a1.54,1.54,0,0,0-1.539-1.539H64.022a1.54,1.54,0,0,0-1.539,1.539v3.753A1.54,1.54,0,0,0,64.022,26.423Zm.038-5.254h3.678v3.678H64.06Zm-.038,15.237h3.753a1.54,1.54,0,0,0,1.539-1.539V31.114a1.54,1.54,0,0,0-1.539-1.539H64.022a1.54,1.54,0,0,0-1.539,1.539v3.753A1.54,1.54,0,0,0,64.022,36.406Zm.038-5.254h3.678V34.83H64.06ZM53.313,26.423h3.753A1.54,1.54,0,0,0,58.6,24.884V21.131a1.54,1.54,0,0,0-1.539-1.539H53.313a1.54,1.54,0,0,0-1.539,1.539v3.753A1.54,1.54,0,0,0,53.313,26.423Zm.038-5.254h3.678v3.678H53.351ZM35.647,39.09H31.894a1.54,1.54,0,0,0-1.539,1.539v3.753a1.54,1.54,0,0,0,1.539,1.539h3.753a1.54,1.54,0,0,0,1.539-1.539V40.629a1.54,1.54,0,0,0-1.539-1.539Zm-.038,5.254H31.932V40.666H35.61Zm.038-24.751H31.894a1.54,1.54,0,0,0-1.539,1.539v3.753a1.54,1.54,0,0,0,1.539,1.539h3.753a1.54,1.54,0,0,0,1.539-1.539V21.131a1.54,1.54,0,0,0-1.539-1.539Zm-.038,5.254H31.932V21.169H35.61Zm17.7,11.325h3.753A1.54,1.54,0,0,0,58.6,34.633V30.88a1.54,1.54,0,0,0-1.539-1.539H53.313a1.54,1.54,0,0,0-1.539,1.539v3.753A1.54,1.54,0,0,0,53.313,36.172Zm.038-5.254h3.678V34.6H53.351ZM70.1,3.6h-3.37V2.4a2.4,2.4,0,0,0-2.4-2.4h-.362a2.4,2.4,0,0,0-2.4,2.4V3.6H38.1V2.4A2.4,2.4,0,0,0,35.7,0h-.362a2.4,2.4,0,0,0-2.4,2.4V3.6H29.573a3.95,3.95,0,0,0-3.946,3.946V49.861A3.945,3.945,0,0,0,29.568,53.8H70.1a3.945,3.945,0,0,0,3.941-3.941V7.547A3.95,3.95,0,0,0,70.1,3.6ZM63.148,2.4a.821.821,0,0,1,.82-.82h.362a.821.821,0,0,1,.82.82V3.6h-2Zm-28.63,0a.821.821,0,0,1,.82-.82H35.7a.821.821,0,0,1,.82.82V3.6h-2V2.4ZM72.466,49.861A2.367,2.367,0,0,1,70.1,52.225H29.567A2.367,2.367,0,0,1,27.2,49.861v0a3.925,3.925,0,0,0,2.37.793H61.526a3.92,3.92,0,0,0,2.79-1.156l8.15-8.15Zm-8.954-1.793a3.371,3.371,0,0,0,.1-.795V42.013a1.8,1.8,0,0,1,1.8-1.8h5.261a3.371,3.371,0,0,0,.795-.1Zm8.954-33.2H38.885a.788.788,0,0,0,0,1.576H72.466v20.4a1.8,1.8,0,0,1-1.8,1.8H65.407a3.379,3.379,0,0,0-3.375,3.375v5.261a1.8,1.8,0,0,1-1.8,1.8H29.573A2.372,2.372,0,0,1,27.2,46.7V16.44h8.53a.788.788,0,0,0,0-1.576H27.2V7.547a2.372,2.372,0,0,1,2.37-2.37h3.37V7.495a2.4,2.4,0,0,0,2.4,2.4.788.788,0,0,0,0-1.576.821.821,0,0,1-.82-.82V5.178H61.572V7.495a2.4,2.4,0,0,0,2.4,2.4.788.788,0,1,0,0-1.576.821.821,0,0,1-.82-.82V5.178H70.1a2.372,2.372,0,0,1,2.37,2.37ZM35.647,29.341H31.894a1.54,1.54,0,0,0-1.539,1.539v3.753a1.54,1.54,0,0,0,1.539,1.539h3.753a1.54,1.54,0,0,0,1.539-1.539V30.88A1.54,1.54,0,0,0,35.647,29.341ZM35.61,34.6H31.932V30.918H35.61ZM42.6,26.423h3.753A1.54,1.54,0,0,0,47.9,24.884V21.131a1.54,1.54,0,0,0-1.539-1.539H42.6a1.54,1.54,0,0,0-1.539,1.539v3.753A1.54,1.54,0,0,0,42.6,26.423Zm.038-5.254h3.678v3.678H42.641ZM53.35,44.344a.788.788,0,0,0-1.575.038,1.54,1.54,0,0,0,1.539,1.539h3.753A1.54,1.54,0,0,0,58.6,44.382V40.629a1.54,1.54,0,0,0-1.539-1.539H53.313a1.54,1.54,0,0,0-1.539,1.539v1.082a.788.788,0,1,0,1.576,0V40.666h3.678v3.678ZM42.6,36.172h3.753A1.54,1.54,0,0,0,47.9,34.633V30.88a1.54,1.54,0,0,0-1.539-1.539H42.6a1.54,1.54,0,0,0-1.539,1.539v3.753A1.54,1.54,0,0,0,42.6,36.172Zm.038-5.254h3.678V34.6H42.641Zm-.038,15h3.753A1.54,1.54,0,0,0,47.9,44.382V40.629a1.54,1.54,0,0,0-1.539-1.539H42.6a1.54,1.54,0,0,0-1.539,1.539v3.753A1.54,1.54,0,0,0,42.6,45.92Zm.038-5.254h3.678v3.678H42.641Z" transform="translate(-25.627 0)"/></g></svg>