<svg xmlns="http://www.w3.org/2000/svg" width="38.86" height="38.86" viewBox="0 0 38.86 38.86"><defs><style>.a{fill:#b89b4b;}</style></defs><path class="a" d="M214.438,210.719A3.719,3.719,0,1,1,210.719,207,3.719,3.719,0,0,1,214.438,210.719Zm0,0" transform="translate(-191.289 -191.289)"/><path class="a" d="M153.329,138.055a3.695,3.695,0,0,0-2.117-2.117,6.173,6.173,0,0,0-2.071-.384c-1.177-.054-1.53-.065-4.509-.065s-3.332.011-4.509.065a6.177,6.177,0,0,0-2.071.384,3.7,3.7,0,0,0-2.118,2.117,6.175,6.175,0,0,0-.384,2.072c-.054,1.176-.065,1.529-.065,4.509s.012,3.332.065,4.508a6.173,6.173,0,0,0,.384,2.072,3.695,3.695,0,0,0,2.117,2.117,6.166,6.166,0,0,0,2.072.384c1.176.054,1.529.065,4.508.065s3.332-.011,4.509-.065a6.166,6.166,0,0,0,2.072-.384,3.7,3.7,0,0,0,2.117-2.117,6.179,6.179,0,0,0,.384-2.072c.054-1.177.065-1.53.065-4.508s-.011-3.332-.065-4.509A6.165,6.165,0,0,0,153.329,138.055Zm-8.7,12.309a5.729,5.729,0,1,1,5.729-5.729A5.729,5.729,0,0,1,144.631,150.364Zm5.956-10.346a1.339,1.339,0,1,1,1.339-1.339A1.339,1.339,0,0,1,150.587,140.018Zm0,0" transform="translate(-125.201 -125.205)"/><path class="a" d="M19.43,0A19.43,19.43,0,1,0,38.86,19.43,19.432,19.432,0,0,0,19.43,0ZM30.52,24.03A8.186,8.186,0,0,1,30,26.738,5.7,5.7,0,0,1,26.738,30a8.191,8.191,0,0,1-2.708.519c-1.19.054-1.57.067-4.6.067s-3.41-.013-4.6-.067A8.191,8.191,0,0,1,12.122,30a5.7,5.7,0,0,1-3.263-3.263A8.184,8.184,0,0,1,8.34,24.03c-.055-1.19-.068-1.57-.068-4.6s.013-3.41.067-4.6a8.186,8.186,0,0,1,.518-2.708,5.709,5.709,0,0,1,3.263-3.263A8.193,8.193,0,0,1,14.83,8.34c1.19-.054,1.57-.067,4.6-.067s3.41.013,4.6.068a8.2,8.2,0,0,1,2.708.518A5.706,5.706,0,0,1,30,12.122a8.185,8.185,0,0,1,.519,2.708c.054,1.19.067,1.57.067,4.6S30.574,22.84,30.52,24.03Zm0,0"/></svg>