<svg xmlns="http://www.w3.org/2000/svg" width="29.48" height="29.48" viewBox="0 0 29.48 29.48"><defs><style>.a{fill:#101a2b;}</style></defs><path class="a" d="M224.113,213.562l4.795-2.762-4.795-2.761Zm0,0" transform="translate(-211.209 -196.061)"/><path class="a" d="M14.74,0A14.74,14.74,0,1,0,29.48,14.74,14.742,14.742,0,0,0,14.74,0Zm9.21,14.755a24.328,24.328,0,0,1-.379,4.431,2.308,2.308,0,0,1-1.624,1.623,56.023,56.023,0,0,1-7.207.379,54.019,54.019,0,0,1-7.207-.394,2.308,2.308,0,0,1-1.624-1.624A24.221,24.221,0,0,1,5.53,14.74a24.312,24.312,0,0,1,.379-4.431A2.355,2.355,0,0,1,7.533,8.671a56.024,56.024,0,0,1,7.207-.379,53.9,53.9,0,0,1,7.207.394,2.308,2.308,0,0,1,1.624,1.624A23.087,23.087,0,0,1,23.95,14.755Zm0,0"/></svg>