<svg xmlns="http://www.w3.org/2000/svg" width="53.801" height="51.644" viewBox="0 0 53.801 51.644"><defs><style>.a{fill:#b89b4b;}</style></defs><g transform="translate(0 0)"><path class="a" d="M53.7,38.569A21.209,21.209,0,0,0,37.2,19.972V17.3a3.573,3.573,0,0,0-.862-7.04H28.776a3.573,3.573,0,0,0-.862,7.04v2.677a21.1,21.1,0,0,0-10.348,5.692A21.327,21.327,0,0,0,15.782,27.7c-.026,0-.053,0-.08,0H8.214a1.051,1.051,0,0,0,0,2.1h6.138a21.065,21.065,0,0,0-1.865,4.039H1.051a1.051,1.051,0,0,0,0,2.1H11.893a21.366,21.366,0,0,0-.522,4.039H6.725a1.051,1.051,0,0,0,0,2.1h4.68a21.334,21.334,0,0,0,.656,4.039H5.254a1.051,1.051,0,0,0,0,2.1h7.478A21.223,21.223,0,0,0,30.477,61.8q1.041.1,2.083.1a21.277,21.277,0,0,0,11.584-3.424A1.051,1.051,0,0,0,43,56.721a19.125,19.125,0,1,1,5.633-5.64,1.051,1.051,0,1,0,1.763,1.145A21.294,21.294,0,0,0,53.7,38.569ZM27.305,13.835a1.473,1.473,0,0,1,1.471-1.471h7.566a1.471,1.471,0,0,1,0,2.942H28.776A1.473,1.473,0,0,1,27.305,13.835Zm2.71,5.783v-2.21H35.1v2.206A21.411,21.411,0,0,0,30.015,19.618Z" transform="translate(0 -10.262)"/><path class="a" d="M436.821,425.5a1.051,1.051,0,1,0,.743.308A1.057,1.057,0,0,0,436.821,425.5Z" transform="translate(-389.979 -381.866)"/><path class="a" d="M171.173,144.609a16.3,16.3,0,1,0,16.3,16.3A16.32,16.32,0,0,0,171.173,144.609Zm0,30.5a14.2,14.2,0,1,1,14.2-14.2A14.216,14.216,0,0,1,171.173,175.11Z" transform="translate(-138.598 -130.492)"/><path class="a" d="M269.249,219.719l-5.2,5.2a3.257,3.257,0,0,0-2.885,0l-2.329-2.329a1.051,1.051,0,0,0-1.486,1.486l2.329,2.329a3.265,3.265,0,1,0,5.857,0l5.052-5.052h0l.153-.153a1.051,1.051,0,1,0-1.486-1.486Zm-6.647,9.3a1.164,1.164,0,1,1,1.164-1.164A1.165,1.165,0,0,1,262.6,229.016Z" transform="translate(-230.027 -197.434)"/><path class="a" d="M399.679,289.86h-.974a1.051,1.051,0,1,0,0,2.1h.974a1.051,1.051,0,0,0,0-2.1Z" transform="translate(-355.869 -260.48)"/><path class="a" d="M195.106,289.616h-.973a1.051,1.051,0,0,0,0,2.1h.973a1.051,1.051,0,0,0,0-2.1Z" transform="translate(-172.793 -260.261)"/><path class="a" d="M301.174,185.894a1.051,1.051,0,0,0,1.051-1.051v-.973a1.051,1.051,0,1,0-2.1,0v.973A1.051,1.051,0,0,0,301.174,185.894Z" transform="translate(-268.586 -164.687)"/><path class="a" d="M300.93,387.393a1.051,1.051,0,0,0-1.051,1.051v.973a1.051,1.051,0,0,0,2.1,0v-.973A1.051,1.051,0,0,0,300.93,387.393Z" transform="translate(-268.367 -347.764)"/><path class="a" d="M1.051,351.44a1.051,1.051,0,1,0,.743,1.794,1.051,1.051,0,0,0-.743-1.794Z" transform="translate(0 -315.589)"/></g></svg>