<svg xmlns="http://www.w3.org/2000/svg" width="29.48" height="29.48" viewBox="0 0 29.48 29.48"><defs><style>.a{fill:#101a2b;}</style></defs><path class="a" d="M212.643,209.821A2.821,2.821,0,1,1,209.821,207,2.821,2.821,0,0,1,212.643,209.821Zm0,0" transform="translate(-195.081 -195.081)"/><path class="a" d="M149.022,137.435a2.8,2.8,0,0,0-1.606-1.606,4.683,4.683,0,0,0-1.571-.291c-.893-.041-1.16-.049-3.42-.049s-2.528.009-3.42.049a4.686,4.686,0,0,0-1.571.291,2.8,2.8,0,0,0-1.607,1.606,4.685,4.685,0,0,0-.291,1.572c-.041.892-.049,1.16-.049,3.42s.009,2.528.049,3.42a4.683,4.683,0,0,0,.291,1.571,2.8,2.8,0,0,0,1.606,1.606,4.678,4.678,0,0,0,1.572.291c.892.041,1.16.049,3.42.049s2.528-.009,3.42-.049a4.678,4.678,0,0,0,1.572-.291,2.8,2.8,0,0,0,1.606-1.606,4.687,4.687,0,0,0,.292-1.571c.041-.893.049-1.16.049-3.42s-.009-2.528-.049-3.42A4.677,4.677,0,0,0,149.022,137.435Zm-6.6,9.338a4.346,4.346,0,1,1,4.346-4.346A4.346,4.346,0,0,1,142.423,146.773Zm4.518-7.849a1.016,1.016,0,1,1,1.016-1.016A1.016,1.016,0,0,1,146.942,138.925Zm0,0" transform="translate(-127.683 -127.687)"/><path class="a" d="M14.74,0A14.74,14.74,0,1,0,29.48,14.74,14.742,14.742,0,0,0,14.74,0Zm8.413,18.23a6.21,6.21,0,0,1-.393,2.055,4.328,4.328,0,0,1-2.475,2.475,6.214,6.214,0,0,1-2.054.393c-.9.041-1.191.051-3.49.051s-2.587-.01-3.49-.051A6.214,6.214,0,0,1,9.2,22.76a4.328,4.328,0,0,1-2.475-2.475,6.208,6.208,0,0,1-.393-2.054c-.042-.9-.051-1.191-.051-3.49s.01-2.587.051-3.49A6.21,6.21,0,0,1,6.72,9.2,4.331,4.331,0,0,1,9.2,6.72a6.216,6.216,0,0,1,2.055-.393c.9-.041,1.191-.051,3.49-.051s2.587.01,3.49.051a6.217,6.217,0,0,1,2.055.393A4.329,4.329,0,0,1,22.76,9.2a6.209,6.209,0,0,1,.394,2.055c.041.9.051,1.191.051,3.49S23.194,17.327,23.153,18.23Zm0,0"/></svg>