<svg xmlns="http://www.w3.org/2000/svg" width="31" height="31" viewBox="0 0 31 31"><defs><style>.a{fill:#b89b4b;}</style></defs><path class="a" d="M15.5,31A15.5,15.5,0,0,1,9.467,1.218,15.5,15.5,0,0,1,21.533,29.782,15.4,15.4,0,0,1,15.5,31ZM12.869,16.012l-6.028,5.78a.791.791,0,0,0,.283.053H23.262a.841.841,0,0,0,.3-.053l-6.027-5.78L15.2,17.9l-2.333-1.892ZM24.3,10.232,18.33,15.358,24.3,21.1a1.349,1.349,0,0,0,.053-.353V10.568A1.052,1.052,0,0,0,24.3,10.232Zm-18.224,0c-.033.2-.053.323-.053.336V20.75A1.5,1.5,0,0,0,6.1,21.1l5.974-5.745Zm1.043-.76a.763.763,0,0,0-.3.053l6.01,5.144.8.636L15.2,16.6l1.573-1.29.8-.636,6.01-5.144a.985.985,0,0,0-.318-.053Z"/></svg>