<svg xmlns="http://www.w3.org/2000/svg" width="29" height="29" viewBox="0 0 29 29"><defs><style>.a{fill:#101a2b;}</style></defs><path class="a" d="M14.5,29A14.5,14.5,0,0,1,8.856,1.139,14.5,14.5,0,0,1,20.144,27.861,14.41,14.41,0,0,1,14.5,29ZM10.346,6.194a.789.789,0,0,0-.174.02L6.8,6.993a.776.776,0,0,0-.6.759A15.04,15.04,0,0,0,21.248,22.8a.776.776,0,0,0,.759-.6l.779-3.374a.79.79,0,0,0-.455-.9L18.7,16.375a.779.779,0,0,0-.908.224L16.18,18.565a12.059,12.059,0,0,1-5.749-5.749L12.4,11.207a.781.781,0,0,0,.224-.908L11.064,6.665A.784.784,0,0,0,10.346,6.194Z"/></svg>